<?xml version="1.0" encoding="UTF-8"?>
<svg version="1.1" xmlns="http://www.w3.org/2000/svg" width="96" height="110">
<path d="M0 0 C31.68 0 63.36 0 96 0 C96 36.3 96 72.6 96 110 C64.32 110 32.64 110 0 110 C0 73.7 0 37.4 0 0 Z " fill="#F3F3F3" transform="translate(0,0)"/>
<path d="M0 0 C8.86489805 5.23691486 14.97264468 11.09527233 18.1875 21 C19.53112319 26.26252416 19.28351754 31.60168073 19.1875 37 C14.7325 37.495 14.7325 37.495 10.1875 38 C7.67614868 44.42905938 6.85849291 48.24421395 8.1875 55 C8.55020588 56.99488234 8.89390699 58.9937811 9.1875 61 C8.8575 61.33 8.5275 61.66 8.1875 62 C1.93666152 61.95210085 -3.24658732 60.78295634 -8.8125 58 C-8.8125 54.37 -8.8125 50.74 -8.8125 47 C-10.1325 47 -11.4525 47 -12.8125 47 C-12.9053125 48.5778125 -12.9053125 48.5778125 -13 50.1875 C-13.98327878 54.80134658 -15.44622956 55.78909589 -18.8125 59 C-20.69561071 61.10417594 -22.5026333 63.27022264 -24.3125 65.4375 C-24.77269531 65.98470703 -25.23289062 66.53191406 -25.70703125 67.09570312 C-26.39345703 67.91264648 -26.39345703 67.91264648 -27.09375 68.74609375 C-27.54621094 69.28089355 -27.99867187 69.81569336 -28.46484375 70.36669922 C-29.37782676 71.47319494 -30.26547599 72.60099967 -31.12890625 73.74658203 C-32.40625 75.41015625 -32.40625 75.41015625 -34.8125 78 C-36.1325 78 -37.4525 78 -38.8125 78 C-38.86333907 71.00743729 -38.89829201 64.01492252 -38.92236328 57.0222168 C-38.93240158 54.64492003 -38.94603504 52.26763555 -38.96337891 49.89038086 C-38.98772241 46.46725424 -38.99900505 43.04429134 -39.0078125 39.62109375 C-39.01813507 38.56353378 -39.02845764 37.50597382 -39.03909302 36.41636658 C-39.03975105 32.05812059 -39.03003981 28.11833079 -37.70263672 23.94165039 C-37.4088916 22.97090576 -37.11514648 22.00016113 -36.8125 21 C-39.06403299 17.12736326 -42.25472624 14.66833032 -45.8125 12 C-45.50247854 8.80732289 -45.24103465 7.38660367 -42.81640625 5.19921875 C-42.01074219 4.70035156 -41.20507812 4.20148437 -40.375 3.6875 C-39.57191406 3.17574219 -38.76882812 2.66398438 -37.94140625 2.13671875 C-35.8125 1 -35.8125 1 -33.8125 1 C-33.8125 0.34 -33.8125 -0.32 -33.8125 -1 C-24.17143726 -5.950816 -9.4955086 -4.52118034 0 0 Z " fill="#161616" transform="translate(58.8125,12)"/>
<path d="M0 0 C1.11503906 -0.00515625 2.23007812 -0.0103125 3.37890625 -0.015625 C9.02957622 0.47511007 11.69017 3.11832846 15.4375 7.25 C18.46793643 11.68742477 19.57872097 15.34689972 19.625 20.6875 C19.63917969 21.42871094 19.65335938 22.16992188 19.66796875 22.93359375 C19.4375 25.25 19.4375 25.25 18.43359375 27.671875 C17.28471933 30.64543231 17.2360236 32.8887295 17.3125 36.0625 C17.33054688 37.03832031 17.34859375 38.01414063 17.3671875 39.01953125 C17.39039063 39.75558594 17.41359375 40.49164063 17.4375 41.25 C11.5625 40.375 11.5625 40.375 10.4375 39.25 C10.15460819 36.99584622 9.9897881 34.74159344 9.81640625 32.4765625 C9.54549175 29.97079922 9.54549175 29.97079922 7.4375 27.25 C2.28134542 26.67258434 2.28134542 26.67258434 -2.4375 28.3125 C-3.75436126 30.35871726 -3.75436126 30.35871726 -4.2890625 33.44921875 C-5.51137561 37.85034334 -8.03353263 40.67361464 -11.0625 44 C-15.02664258 48.45311675 -15.02664258 48.45311675 -18.5625 53.25 C-19.2225 53.25 -19.8825 53.25 -20.5625 53.25 C-20.5625 44.67 -20.5625 36.09 -20.5625 27.25 C-17.5925 27.25 -14.6225 27.25 -11.5625 27.25 C-11.5625 25.93 -11.5625 24.61 -11.5625 23.25 C-14.5325 23.25 -17.5025 23.25 -20.5625 23.25 C-20.9992461 14.80624213 -18.57629966 10.21756024 -13.2578125 3.765625 C-9.29328755 0.22130315 -5.14923946 -0.0238667 0 0 Z " fill="#EBEBEB" transform="translate(44.5625,27.75)"/>
<path d="M0 0 C6.44118617 5.27006141 12.10808203 12.0171836 12.9921875 20.6015625 C12.99884662 22.48609315 12.8866966 24.37042182 12.75 26.25 C10.77 26.25 8.79 26.25 6.75 26.25 C6.51925781 25.51394531 6.28851563 24.77789062 6.05078125 24.01953125 C3.8815883 17.52910018 2.16489359 12.45744679 -4.25 9.25 C-4.25 8.59 -4.25 7.93 -4.25 7.25 C-13.42614152 5.10443038 -21.06569967 3.51310891 -29.62109375 8.1796875 C-31.4142667 9.27916506 -31.4142667 9.27916506 -33.25 11.25 C-35.0625 11.25 -35.0625 11.25 -37.25 10.25 C-39.0956968 8.35171925 -40.63401815 6.35975408 -42.25 4.25 C-41.25711401 1.71734428 -40.6070558 0.47096774 -38.26171875 -0.98046875 C-37.49472656 -1.29628906 -36.72773437 -1.61210937 -35.9375 -1.9375 C-35.17824219 -2.26105469 -34.41898438 -2.58460937 -33.63671875 -2.91796875 C-22.49803183 -6.80101345 -10.28762379 -5.53948973 0 0 Z " fill="#E5E5E5" transform="translate(61.25,18.75)"/>
<path d="M0 0 C3.0805726 3.0805726 3.15082622 6.20534616 3.1875 10.4375 C3.20167969 11.17871094 3.21585938 11.91992188 3.23046875 12.68359375 C3 15 3 15 1.99609375 17.421875 C0.84721933 20.39543231 0.7985236 22.6387295 0.875 25.8125 C0.89304687 26.78832031 0.91109375 27.76414062 0.9296875 28.76953125 C0.95289063 29.50558594 0.97609375 30.24164063 1 31 C-4.875 30.125 -4.875 30.125 -6 29 C-6.04092937 26.66702567 -6.04241723 24.33294775 -6 22 C-5.67 22 -5.34 22 -5 22 C-4.67 23.98 -4.34 25.96 -4 28 C-3.01 28.33 -2.02 28.66 -1 29 C-1.01160156 28.31292969 -1.02320313 27.62585938 -1.03515625 26.91796875 C-1.04417969 26.01691406 -1.05320312 25.11585937 -1.0625 24.1875 C-1.07410156 23.29417969 -1.08570313 22.40085937 -1.09765625 21.48046875 C-1 19 -1 19 0 16 C0.07051114 13.26134713 0.09357765 10.54972412 0.0625 7.8125 C0.05798828 7.06291016 0.05347656 6.31332031 0.04882812 5.54101562 C0.03706354 3.69397617 0.01912865 1.84697787 0 0 Z " fill="#C1C1C1" transform="translate(61,38)"/>
</svg>
