<?xml version="1.0" encoding="utf-8"?>
<svg xmlns="http://www.w3.org/2000/svg" viewBox="0 0 500 500">
  <path d="M 116.012 93.116 C 186.273 18.501 278.185 28.29 313.225 38.258 C 342.584 46.61 405.338 77.478 429.923 137.283 C 430.005 137.482 361.755 163.524 362.014 163.939 C 364.11 167.263 369.113 180.491 370.061 182.387 C 371.01 184.283 398.381 262.664 406.104 290.307 C 406.175 290.561 364.751 246.31 355.255 240.628 C 312.843 215.253 289.423 233.509 282.151 237.871 C 281.831 238.062 339.363 259.178 351.846 266.036 C 361.337 271.25 382.92 287.518 385.295 305.977 C 392.874 364.883 406.34 461.797 406.34 487.228 C 406.34 487.674 336.716 386.333 331.362 378.1 C 328.093 373.075 273.27 293.427 229.741 313.771 C 223.957 316.475 203.495 320.335 186.991 330.059 C 186.62 330.277 175.894 315.777 167.703 297.699 C 159.615 279.854 152.662 252.423 152.086 252.097 C 150.732 251.337 79.624 260.122 79.446 258.834 C 68.903 182.408 88.813 122.001 116.012 93.116 Z M 310.498 48.507 C 258.629 32.517 171.819 45.278 121.307 104.874 C 99.852 130.187 83.404 177.213 89.52 242.957 C 89.702 244.917 149.849 239.734 149.88 238.287 C 150.383 215.031 148.837 167.687 187.356 143.507 C 211.489 128.358 243.508 117.139 292.669 120.445 C 334.258 123.242 356.53 155 356.898 155.054 C 357.635 155.161 417.681 133.22 417.284 132.445 C 391.629 82.352 345.422 59.273 310.498 48.507 Z M 215.905 142.604 C 190.103 153.828 171.318 164.337 162.468 201.805 C 150.075 254.275 187.04 309.143 189.175 313.65 C 189.4 314.126 222.368 301.183 231.771 299.219 C 279.851 289.18 309.284 330.479 341.238 371.953 C 349.159 382.233 395.79 450.737 395.795 450.584 C 395.803 450.391 379.877 335.821 376.696 307.353 C 375.168 293.676 356.378 278.572 346.478 273.457 C 336.856 268.486 262.368 240.282 262.463 240.03 C 264.613 234.373 310.658 200.724 359.279 232.876 C 367.635 238.402 387.308 259.29 387.277 259.179 C 383.777 246.707 371.314 209.644 359.883 183.177 C 326.963 106.952 240.481 131.917 215.905 142.604 Z" style="stroke-width: 1; fill: white;"/>
  <path d="M 443.709 -177.8 L 448.709 -177.8 L 446.709 -175.8 L 440.709 -175.8 L 443.709 -177.8 Z" fill="#000000" style="stroke-width: 1;"/>
</svg>