<svg viewBox="0 0 500 600" xmlns="http://www.w3.org/2000/svg">
<path fill="none" stroke="black" stroke-width="2" d="M120,70 h260 v20 h-260 z M120,90 
c0,-20 260,-20 260,0 
c0,30 0,30 0,30 
h-260 
c0,0 0,-30 0,-30z 
M140,120 h220 v30 h-220 z 
M130,150 c0,40 250,40 250,0 
v10 
h-250 
v-10z 
M130,160 
c0,180 250,180 250,0 
h-40 
c0,120 -170,120 -170,0 
h-40z" />
<path fill="none" stroke="black" stroke-width="2" d="M145,200 
c5,0 5,100 0,100 
c-5,0 -5,-100 0,-100 
M165,200 
c5,0 5,100 0,100 
c-5,0 -5,-100 0,-100
M185,200 
c5,0 5,100 0,100 
c-5,0 -5,-100 0,-100
M205,200 
c5,0 5,100 0,100 
c-5,0 -5,-100 0,-100
M225,200 
c5,0 5,100 0,100 
c-5,0 -5,-100 0,-100
M245,200 
c5,0 5,100 0,100 
c-5,0 -5,-100 0,-100
M265,200 
c5,0 5,100 0,100 
c-5,0 -5,-100 0,-100
M285,200 
c5,0 5,100 0,100 
c-5,0 -5,-100 0,-100
M305,200 
c5,0 5,100 0,100 
c-5,0 -5,-100 0,-100"/>
</svg>